# xmcd CD database file
#
# Track frame offsets:
#	150
#	13301
#	24836
#	37331
#	51896
#	65941
#	79000
#	93720
#	103271
#	115620
#	125559
#	142019
#
# Disc length: 2058 seconds
#
# Revision: 0
# Processed by: cddbd v1.5.2PL0 Copyright (c) Steve Scherf et al.
# Submitted via: CDex 1.70beta2
#
DISCID=b008080c
DTITLE=Merle Haggard - American Classics Vol1
DYEAR=2004
DGENRE=Country
TTITLE0=Swinging Doors
TTITLE1=(My Friends Are Gonna Be) Strangers
TTITLE2=The Bottle Let Me Down
TTITLE3=Branded Man
TTITLE4=I Threw Away The Rose
TTITLE5=Sing Me Back Home
TTITLE6=I'm A Lonesome Fugitive
TTITLE7=The Legend Of Bonnie And Clyde
TTITLE8=I Take A Lot Of Pride In What I Am
TTITLE9=Mama Tried
TTITLE10=Hungry Eyes
TTITLE11=Workin' Man Blues
EXTD=YEAR: 2004
EXTT0=
EXTT1=
EXTT2=
EXTT3=
EXTT4=
EXTT5=
EXTT6=
EXTT7=
EXTT8=
EXTT9=
EXTT10=
EXTT11=
PLAYORDER=
